<svg width="460" height="355" viewBox="0 0 460 355" fill="none" xmlns="http://www.w3.org/2000/svg">
<path fill-rule="evenodd" clip-rule="evenodd" d="M181.39 59.737L178.545 64.614H175.816L174.946 66.048H177.703L171.634 76.431C170.357 78.639 171.258 80.677 173.696 80.677C174.919 80.677 176.234 80.04 177.549 79.056L176.771 80.39H179.817L184.405 72.503C189.049 66.736 191.111 67.483 189.804 69.693L185.884 76.433C184.606 78.643 185.507 80.681 187.945 80.681C189.741 80.681 191.733 79.311 193.638 77.476C193.784 79.333 195.305 80.681 197.728 80.681C201.151 80.681 204.548 78.041 207.044 75.173C206.847 74.77 206.325 74.312 205.918 74.14L205.715 74.366C203.537 76.863 200.751 78.841 198.633 78.841C196.773 78.841 195.669 77.695 197.063 75.286L197.353 74.766C199.299 75.571 202.957 75.197 205.221 71.326L205.658 70.579C207.283 67.826 205.716 65.761 203.248 65.761C200.809 65.761 198.865 67.024 197.588 69.202L194.658 74.167L194.482 74.367C192.305 76.861 190.187 78.839 188.851 78.839C188.185 78.839 187.805 78.379 188.501 77.204L192.856 69.661C194.162 67.396 192.916 65.761 191.232 65.761C189.925 65.761 188.53 66.478 187.022 68.026L191.84 59.737H188.821L180.398 74.175L180.228 74.365C178.052 76.861 175.931 78.839 174.595 78.839C173.928 78.839 173.551 78.379 174.249 77.204L180.721 66.046H183.188L184.06 64.613H181.564L184.409 59.738L181.39 59.737ZM149.081 64.616L151.926 59.741H154.945L152.099 64.614H154.598L153.726 66.05H151.261L144.785 77.208C144.088 78.383 144.466 78.843 145.133 78.843C146.468 78.843 148.59 76.864 150.766 74.368L150.922 74.192L152.159 72.102L153.639 69.549C155.381 66.565 157.179 65.649 159.501 65.649C162.347 65.649 164.03 68.602 162.202 71.729L159.357 76.575C160.868 76.546 162.551 75.831 163.915 74.368L164.12 74.14C164.526 74.312 165.048 74.769 165.248 75.173C163.708 76.979 160.864 78.069 159.064 78.069H158.398C155.129 82.153 149.782 81.41 149.788 77.608C147.922 79.377 145.985 80.681 144.231 80.681C141.793 80.681 140.892 78.643 142.17 76.434L148.238 66.051H145.481L146.351 64.616H149.081ZM159.879 70.614C160.907 68.872 160.441 67.667 159.457 67.577C158.692 67.507 157.614 68.113 156.687 69.669L155.236 72.106L152.942 76.034C151.142 79.131 154.599 79.59 156.021 77.18L156.051 77.124C155.876 76.836 155.76 76.491 155.76 76.12C155.76 75.145 156.543 74.341 157.53 74.341H157.675L159.879 70.614ZM203.191 70.583C204.203 68.839 203.671 67.922 202.702 67.979V67.98C201.95 68.024 200.933 68.658 200.17 69.95L198.224 73.307C199.357 73.709 201.304 73.767 202.754 71.329L203.191 70.583ZM247.02 62.516C245.306 64.036 245.162 65.73 246.237 67.106L246.499 67.45L246.437 67.5369C245.108 69.3928 243.333 71.8725 241.389 74.134L241.391 74.137L241.188 74.366C239.823 75.827 238.142 76.546 236.63 76.575L239.473 71.727C241.303 68.601 239.62 65.647 236.773 65.647C234.453 65.647 232.653 66.565 230.913 69.547L229.429 72.1L228.191 74.192L228.037 74.368C225.54 77.208 223.394 79.039 221.012 80.044L227.775 68.63H226.005C226.005 67.396 224.729 65.76 222.841 65.76C221.217 65.76 218.951 67.025 217.673 69.204L213.435 76.431C212.157 78.639 213.057 80.677 215.495 80.677C216.338 80.677 217.355 80.303 218.372 79.673L217.529 81.077C213.465 82.31 210.909 83.945 210.909 86.183C210.909 89.052 215.351 89.654 217.529 85.983L219.821 82.053C222.237 81.31 224.604 79.906 227.061 77.589C227.04 81.406 232.398 82.156 235.671 78.065H236.339C238.139 78.065 240.984 76.976 242.523 75.169C243.972 73.505 245.103 72.014 247.513 68.774L247.918 69.263C248.295 69.75 248.443 70.353 248.093 70.954L244.9 76.433C243.62 78.643 244.521 80.679 246.961 80.679C248.491 80.679 250.165 79.684 251.803 78.257C251.753 79.643 252.69 80.679 254.422 80.679C255.262 80.679 256.279 80.306 257.296 79.675L256.454 81.077C252.389 82.31 249.838 83.945 249.838 86.183C249.838 89.052 254.278 89.653 256.454 85.983L258.746 82.053C261.206 81.295 263.616 79.847 266.123 77.454C266.259 79.322 267.781 80.679 270.213 80.679C272.671 80.679 275.112 79.316 277.217 77.489C277.1 81.394 282.527 82.192 285.829 78.067H286.497C287.442 78.067 288.672 77.759 289.854 77.214C289.041 79.287 289.788 80.679 291.515 80.679C293.171 80.679 295.028 79.187 296.479 77.811C296.189 79.416 297.146 80.679 299.063 80.679C301.559 80.679 304.433 78.042 306.931 75.173L306.929 75.171C308.284 73.6266 309.512 71.9951 310.499 70.6853L310.499 70.6851C310.759 70.3395 311.003 70.0163 311.227 69.723C310.827 70.7632 310.633 72.082 310.443 73.3748C310.068 75.9297 309.707 78.383 307.801 78.383C306.785 78.383 306.381 77.293 306.381 77.293L304.491 78.268C304.491 78.268 305.042 80.68 307.801 80.68C308.069 80.68 308.313 80.6544 308.575 80.6269L308.641 80.62C308.656 80.62 308.671 80.6133 308.686 80.6065C308.702 80.5998 308.717 80.593 308.732 80.593C311.808 80.193 314.856 77.783 317.12 75.173C316.947 74.714 316.424 74.255 315.99 74.139L315.787 74.368C314.722 75.6003 313.502 76.6893 312.157 77.608C312.532 76.4942 312.729 75.1467 312.942 73.69C313.273 71.4322 313.641 68.9123 314.771 66.594L312.507 65.389C312.276 65.7019 311.994 66.0902 311.672 66.5352C310.249 68.4981 308.026 71.5651 305.801 74.137V74.139L305.598 74.368C303.422 76.864 301.303 78.84 299.967 78.84C299.3 78.84 298.922 78.381 299.62 77.206L306.064 66.048H303.044L297.674 75.313C295.381 77.377 293.612 78.525 293.03 78.266C292.33 77.9747 292.929 76.9903 293.321 76.3458C293.351 76.2956 293.381 76.2475 293.408 76.202L299.301 66.05H296.281L291.547 74.142L291.348 74.368C289.984 75.831 288.301 76.548 286.79 76.578L289.635 71.729C291.463 68.602 289.785 65.649 286.936 65.649C284.613 65.649 282.813 66.567 281.072 69.552L279.59 72.102L278.353 74.192L278.198 74.37C276.022 76.866 273.234 78.843 271.115 78.843C269.257 78.843 268.155 77.697 269.548 75.288L269.838 74.77C271.782 75.574 275.442 75.2 277.705 71.327L278.143 70.581C279.766 67.827 278.201 65.762 275.733 65.762C273.293 65.762 271.346 67.027 270.07 69.206L267.144 74.171L266.969 74.368C264.47 77.208 262.324 79.041 259.941 80.046L266.705 68.63H264.933C264.933 67.396 263.656 65.762 261.769 65.762C260.144 65.762 257.88 67.025 256.602 69.204L253.706 74.141L253.698 74.137L253.495 74.367C251.319 76.862 249.197 78.841 247.861 78.841C247.194 78.841 246.819 78.381 247.515 77.206L250.533 71.986C251.578 70.179 251.084 69.116 250.096 67.94L248.413 65.93C247.978 65.385 247.978 64.784 248.588 64.21L247.02 62.516ZM237.15 70.614C238.177 68.872 237.71 67.666 236.726 67.576V67.577C235.962 67.507 234.886 68.113 233.958 69.669L232.505 72.106L230.213 76.034C228.413 79.131 231.869 79.59 233.291 77.18L233.319 77.124C233.145 76.836 233.029 76.491 233.029 76.12C233.029 75.145 233.813 74.341 234.799 74.341H234.946L237.15 70.614ZM286.884 67.576C287.868 67.666 288.337 68.872 287.31 70.614L285.104 74.341H284.957C283.971 74.341 283.189 75.145 283.189 76.12C283.189 76.491 283.305 76.836 283.478 77.124L283.448 77.18C282.027 79.59 278.573 79.131 280.373 76.034L282.665 72.106L284.116 69.669C285.043 68.113 286.119 67.507 286.884 67.577V67.576ZM275.669 70.583C276.681 68.84 276.152 67.924 275.184 67.981V67.982C274.432 68.026 273.414 68.66 272.652 69.952L270.704 73.307C271.837 73.709 273.783 73.767 275.234 71.329L275.669 70.583ZM222.781 68.182C223.804 68.176 224.459 69.066 223.626 70.582L221.334 74.542C219.504 77.439 217.674 78.842 216.396 78.842C215.729 78.842 215.351 78.383 216.047 77.208L220.259 69.952C220.969 68.735 221.986 68.187 222.781 68.182ZM262.549 70.582C263.382 69.066 262.727 68.176 261.704 68.182C260.909 68.187 259.892 68.735 259.182 69.952L254.972 77.208C254.278 78.383 254.654 78.842 255.321 78.842C256.597 78.842 258.429 77.439 260.257 74.542L262.549 70.582ZM216.366 83.09L216.365 83.0913C214.075 83.9792 213.348 84.8671 213.348 85.641C213.348 86.444 214.364 86.615 215.002 85.497L216.365 83.0913L216.366 83.091V83.09ZM255.29 83.0913L255.291 83.09V83.091L255.29 83.0913ZM255.29 83.0913L253.929 85.497C253.289 86.615 252.273 86.444 252.273 85.641C252.273 84.8671 252.999 83.9792 255.29 83.0913ZM100.641 71.478H129.563V73.428H100.641V71.478ZM356.593 71.478H327.671V73.428H356.593V71.478Z" fill="#766458"/>
<path fill-rule="evenodd" clip-rule="evenodd" d="M194.44 41.011V48.747H173.624V4H194.44V11.67H181.24V22.474H191.775V30.144H181.24V41.01L194.44 41.011ZM215.786 48.747V41.011L205.189 41.01V4H197.573V48.747H215.786ZM322.316 48.747V41.011H309.115V30.144H319.65V22.474H309.115V11.671H322.316V4H301.5V48.747H322.316ZM297.075 4.001H289.524L282.731 25.606L275.94 4.001H268.388V48.748H276.005V26.758L278.987 38.136H286.412L289.459 26.758V48.748H297.075V4.001ZM257.615 11.671H252.092V41.011H257.616L257.615 11.671ZM265.295 8.732C265.295 6.11 263.137 4.001 260.597 4.001L249.173 4.002C246.573 4.002 244.477 6.111 244.477 8.732V44.017C244.477 46.574 246.573 48.747 249.173 48.747H260.597C263.137 48.747 265.295 46.574 265.295 44.017V8.732ZM232.587 32.253L240.265 30.463V44.015C240.265 46.572 238.108 48.745 235.569 48.745H224.144C221.544 48.745 219.449 46.572 219.449 44.015V8.731C219.449 6.109 221.544 4.001 224.144 4.001H235.567C238.107 4.001 240.264 6.109 240.264 8.731V17.808L232.586 19.598V11.67H227.064V41.01H232.586L232.587 32.253ZM169.857 4.001H162.18L161.61 41.011H160.848L155.96 4.001H148.408L143.648 41.011H142.824L142.189 4.001H134.573L135.715 48.747H150.248L152.215 30.273L154.183 48.747H168.653L169.857 4.001Z" fill="#81B3D3"/>
<path fill-rule="evenodd" clip-rule="evenodd" d="M9.289 193.762C9.366 193.84 9.405 193.917 9.405 193.995C9.483 193.995 9.56 194.033 9.637 194.111C11.727 196.433 14.089 198.601 16.721 200.614C19.353 202.549 22.373 203.594 25.779 203.749C25.857 203.749 25.934 203.789 26.011 203.866H26.36C26.437 203.866 26.515 203.904 26.592 203.982H27.869C28.257 203.904 28.605 203.827 28.915 203.749C30.156 203.516 31.3395 203.043 32.399 202.356C33.559 201.659 34.45 200.807 35.069 199.801L35.302 199.336L35.534 198.872C35.689 198.33 35.805 197.827 35.883 197.362C35.96 196.898 35.999 196.472 35.999 196.085C35.999 193.995 35.069 192.253 33.212 190.859C31.4805 189.416 29.517 188.278 27.405 187.491C26.6107 187.198 25.7954 186.965 24.966 186.795C24.2379 186.575 23.5021 186.381 22.76 186.214H22.528C22.45 186.137 22.373 186.098 22.296 186.098C18.5304 185.18 14.9274 183.692 11.612 181.685C8.282 179.595 5.999 176.614 4.76 172.743C4.51737 171.933 4.28502 171.12 4.063 170.304C3.90406 169.42 3.78792 168.529 3.715 167.634C3.64366 167.368 3.60471 167.095 3.599 166.82V164.033C3.676 163.414 3.792 162.795 3.947 162.175C4.18741 160.594 4.57612 159.038 5.108 157.53C5.65 155.982 6.347 154.588 7.198 153.35C9.676 149.246 12.85 146.304 16.721 144.524C20.67 142.743 24.773 141.853 29.031 141.853C30.038 141.853 31.044 141.93 32.051 142.085C33.1384 142.163 34.2228 142.279 35.302 142.433C38.126 142.908 40.8904 143.687 43.547 144.756C46.334 145.84 48.889 147.117 51.212 148.588L44.825 162.872C42.7406 161.328 40.5256 159.968 38.205 158.808C35.883 157.646 33.367 157.066 30.657 157.066H29.727C27.947 157.298 26.283 158.111 24.734 159.504C23.186 160.82 22.412 162.253 22.412 163.801V164.498C22.489 164.73 22.605 164.962 22.76 165.195C22.915 165.737 23.186 166.24 23.573 166.705C23.96 167.169 24.386 167.595 24.85 167.982C25.702 168.679 26.94 169.337 28.567 169.956C30.192 170.498 31.896 171.04 33.677 171.582C35.147 171.969 36.579 172.356 37.973 172.743C39.367 173.053 40.528 173.363 41.457 173.673C45.792 175.221 49.044 177.814 51.212 181.453C53.379 185.014 54.502 188.808 54.579 192.833V193.414C54.579 193.879 54.541 194.344 54.463 194.808V196.085C53.999 200.111 52.683 203.943 50.515 207.582C48.425 211.221 45.599 214.008 42.038 215.944C40.7162 216.565 39.3588 217.108 37.973 217.569C36.589 217.954 35.1952 218.303 33.793 218.615C32.643 218.846 31.4792 219.001 30.309 219.079C29.1927 219.231 28.0676 219.308 26.941 219.311H25.663C21.018 219.157 16.451 218.15 11.96 216.291C7.47 214.356 3.483 211.801 0 208.627L9.289 193.762ZM225.183 147.516C218.835 151 213.88 156.033 210.319 162.613L210.318 162.612C209.295 164.508 208.44 166.489 207.763 168.534C207.078 170.506 206.535 172.524 206.138 174.573C205.905 175.658 205.75 176.702 205.673 177.708C205.596 178.715 205.557 179.722 205.557 180.728C205.557 187.541 207.415 194.122 211.131 200.47C214.847 206.741 219.957 211.58 226.46 214.986C228.828 216.212 231.319 217.185 233.892 217.889C236.48 218.578 239.122 219.044 241.789 219.283H243.299C243.838 219.36 244.381 219.399 244.925 219.399C252.511 219.399 259.751 217.347 266.641 213.244C273.531 209.064 278.602 203.219 281.853 195.709C282.461 194.197 282.965 192.645 283.363 191.064C283.821 189.47 284.132 187.838 284.292 186.187C284.447 185.412 284.525 184.638 284.525 183.864C284.602 183.012 284.641 182.199 284.641 181.425C284.641 175.001 283.131 168.845 280.112 162.961C277.093 157 272.835 152.239 267.338 148.677C264.789 147.054 262.061 145.729 259.209 144.729C256.465 143.733 253.623 143.033 250.731 142.639C249.802 142.561 248.835 142.484 247.828 142.406C246.899 142.329 245.97 142.29 245.041 142.29C238.151 142.29 231.531 144.032 225.183 147.516ZM298.328 217.597V143.623H317.838L345.709 181.597C346.429 182.722 347.088 183.885 347.683 185.081C348.387 186.255 349.045 187.456 349.657 188.681L351.051 191.701C351.515 192.707 351.98 193.674 352.444 194.603C352.371 193.785 352.255 192.971 352.096 192.165C352.019 191.391 351.941 190.578 351.864 189.726C351.706 188.142 351.59 186.555 351.515 184.965C351.435 183.302 351.396 181.636 351.399 179.971V143.623H370.792V217.597H351.399L323.296 179.391C322.522 178.462 321.786 177.378 321.09 176.14C320.386 174.808 319.727 173.452 319.116 172.075C318.666 171.1 318.202 170.132 317.722 169.172C317.363 168.232 316.975 167.302 316.561 166.385C316.948 168.785 317.258 171.224 317.49 173.701C317.722 176.178 317.832 178.656 317.838 181.133V217.597H298.328ZM405.788 143.623L380.356 217.597H400.33L404.162 204.242H432.73L436.446 217.597H456.652L430.988 143.623H405.788ZM408.46 189.958L416.008 165.455C416.315 164.38 416.587 163.296 416.821 162.203C417.137 161.092 417.408 159.969 417.633 158.836C417.71 158.681 417.75 158.565 417.75 158.487C417.75 158.333 417.788 158.178 417.866 158.023C417.943 157.558 418.021 157.132 418.098 156.745C418.253 156.281 418.369 155.855 418.446 155.468C418.524 155.855 418.601 156.281 418.679 156.745C418.756 157.133 418.872 157.558 419.027 158.023C419.269 159.306 419.54 160.584 419.84 161.855C420.216 163.059 420.603 164.259 421.001 165.455L428.55 189.958H408.46ZM263.158 189.206C263.39 188.432 263.584 187.619 263.738 186.767C263.971 185.916 264.126 185.064 264.203 184.212C264.281 183.671 264.319 183.129 264.319 182.587C264.397 182.045 264.435 181.541 264.435 181.077C264.435 180.61 264.396 180.144 264.319 179.683V178.29C263.932 174.96 262.926 171.748 261.299 168.651C259.674 165.554 257.429 163.154 254.564 161.451C253.79 161.064 253.016 160.716 252.242 160.406C251.468 160.096 250.693 159.826 249.919 159.593C249.151 159.439 248.376 159.323 247.597 159.245C246.832 159.091 246.054 159.013 245.274 159.012C241.326 159.012 237.687 160.252 234.358 162.729C231.029 165.206 228.706 168.496 227.39 172.599L227.158 173.064V173.528C226.919 174.251 226.725 174.988 226.578 175.735C226.423 176.432 226.268 177.167 226.113 177.941L225.881 179.567V182.006C225.881 182.238 225.919 182.509 225.997 182.819C226.229 186.922 227.467 190.832 229.713 194.548C232.035 198.186 235.21 200.586 239.235 201.748L240.629 202.212C241.093 202.29 241.597 202.367 242.139 202.444L243.532 202.677H244.926C249.029 202.677 252.706 201.477 255.958 199.077C259.287 196.599 261.687 193.309 263.158 189.206ZM169.157 215.739C173.415 214.809 177.363 213.106 181.002 210.629H181.003C185.493 207.377 188.938 203.197 191.338 198.087C193.738 192.977 195.054 187.674 195.287 182.177V179.274C195.287 178.809 195.248 178.345 195.17 177.881C194.861 172.615 193.506 167.506 191.106 162.551C188.706 157.597 185.338 153.61 181.003 150.591C177.639 148.132 173.805 146.393 169.739 145.481C165.713 144.552 161.609 143.971 157.429 143.739C156.268 143.661 155.068 143.623 153.829 143.623H128.745V217.597H152.551C153.791 217.597 155.03 217.558 156.267 217.481C160.602 217.249 164.899 216.669 169.157 215.739ZM148.602 200.99C148.834 200.99 149.067 201.029 149.299 201.106H150.112C150.422 201.106 150.692 201.146 150.925 201.223H154.06C154.912 201.145 155.725 201.068 156.499 200.99C158.503 200.837 160.486 200.487 162.421 199.945C164.357 199.403 166.099 198.59 167.647 197.506C170.125 195.726 171.944 193.326 173.105 190.306C174.337 187.242 174.968 183.97 174.963 180.668V179.738C174.963 179.429 174.925 179.119 174.847 178.81C174.695 175.877 173.985 173 172.757 170.332C171.518 167.545 169.815 165.339 167.647 163.712C166.057 162.414 164.189 161.5 162.189 161.042C160.208 160.571 158.185 160.299 156.15 160.229H148.602V200.99ZM68.692 143.622V217.596H114.098V200.99H88.55V188.448H112.589V172.654H88.55V159.764H114.098V143.622H68.692ZM351.039 340.005C350.926 340.296 350.869 340.588 350.869 340.882C350.869 341.6 351.116 342.151 351.609 342.531C352.104 342.915 352.679 343.105 353.329 343.105C353.305 343.486 353.205 343.823 353.025 344.115C352.846 344.406 352.617 344.663 352.349 344.875C352.082 345.088 351.795 345.268 351.492 345.414C351.188 345.559 350.914 345.676 350.664 345.766L352.014 347.756C352.047 347.74 352.079 347.724 352.112 347.709L352.141 347.695L352.198 347.669C352.26 347.64 352.322 347.613 352.384 347.586C352.59 347.498 352.83 347.378 353.11 347.234C353.418 347.071 353.716 346.891 354.003 346.694C354.305 346.491 354.588 346.26 354.846 346.003C355.399 345.454 355.839 344.801 356.142 344.083C356.446 343.364 356.597 342.575 356.597 341.725C356.597 341.274 356.531 340.848 356.395 340.444C356.26 340.04 356.07 339.692 355.823 339.4C355.532 339.083 355.176 338.843 354.762 338.673C354.346 338.505 353.914 338.421 353.464 338.421C353.059 338.421 352.694 338.495 352.369 338.641C352.059 338.776 351.778 338.97 351.542 339.213C351.319 339.449 351.151 339.712 351.039 340.005ZM358.706 340.882C358.706 340.589 358.763 340.296 358.873 340.005C358.986 339.712 359.155 339.449 359.379 339.213C359.606 338.978 359.879 338.785 360.204 338.641C360.531 338.496 360.894 338.421 361.3 338.421C361.75 338.421 362.183 338.505 362.597 338.673C363.014 338.843 363.367 339.083 363.658 339.4C363.908 339.692 364.098 340.04 364.232 340.444C364.366 340.849 364.434 341.275 364.434 341.725C364.443 342.534 364.288 343.336 363.979 344.083C363.675 344.801 363.234 345.453 362.681 346.003C362.422 346.26 362.139 346.491 361.836 346.694C361.55 346.893 361.252 347.073 360.943 347.234C360.663 347.379 360.423 347.498 360.218 347.586C360.094 347.64 359.97 347.697 359.848 347.756L358.5 345.766C358.747 345.677 359.02 345.559 359.325 345.414C359.629 345.268 359.915 345.088 360.185 344.875C360.453 344.661 360.679 344.408 360.858 344.115C361.039 343.823 361.14 343.487 361.162 343.105C360.54 343.116 359.934 342.913 359.443 342.531C358.953 342.151 358.706 341.6 358.706 340.883V340.882ZM93.976 283.041C94.089 282.75 94.146 282.457 94.146 282.166H94.147C94.147 281.447 93.899 280.898 93.407 280.517C92.913 280.135 92.339 279.945 91.689 279.945C91.712 279.562 91.812 279.224 91.992 278.932C92.172 278.64 92.395 278.387 92.665 278.174C92.935 277.96 93.222 277.781 93.525 277.635C93.7943 277.505 94.0696 277.387 94.35 277.283L93.002 275.295C92.958 275.317 92.835 275.375 92.632 275.462C92.429 275.551 92.187 275.67 91.907 275.814C91.5989 275.976 91.3007 276.156 91.014 276.354C90.7106 276.556 90.4278 276.787 90.17 277.044C89.617 277.594 89.1764 278.246 88.873 278.964C88.57 279.684 88.418 280.472 88.418 281.324C88.4158 281.759 88.4841 282.191 88.62 282.604C88.7421 282.986 88.9367 283.341 89.193 283.649C89.4882 283.966 89.8503 284.214 90.253 284.374C90.6648 284.542 91.1054 284.627 91.55 284.626C92.2723 284.636 92.9672 284.35 93.473 283.834C93.6917 283.606 93.8627 283.336 93.976 283.041ZM86.31 282.166C86.3052 282.788 86.0647 283.385 85.637 283.836C85.4014 284.078 85.1208 284.272 84.811 284.407C84.485 284.553 84.119 284.627 83.715 284.627C83.27 284.628 82.8291 284.543 82.417 284.375C82.0144 284.214 81.6524 283.966 81.357 283.649C81.1 283.341 80.9054 282.986 80.784 282.604C80.6476 282.191 80.5793 281.759 80.582 281.324C80.582 280.472 80.732 279.684 81.037 278.964C81.34 278.246 81.7806 277.593 82.334 277.044C82.581 276.796 82.861 276.567 83.177 276.353C83.491 276.141 83.789 275.96 84.07 275.813C84.35 275.669 84.59 275.551 84.794 275.463L84.8507 275.437C85.0195 275.361 85.1254 275.314 85.166 275.293L86.513 277.281C86.265 277.371 85.991 277.489 85.687 277.634C85.384 277.781 85.097 277.96 84.83 278.172C84.5625 278.384 84.3337 278.641 84.154 278.931C83.975 279.223 83.874 279.561 83.852 279.943C84.502 279.943 85.076 280.133 85.57 280.516C86.063 280.898 86.31 281.446 86.31 282.166ZM335.475 339.04H331.66L343.541 318.404H347.317L335.475 339.04ZM331.479 340.528C330.243 340.528 329.298 341.508 329.298 342.746C329.298 343.984 330.244 344.926 331.479 344.926C332.711 344.926 333.696 343.982 333.696 342.746C333.696 341.51 332.711 340.528 331.479 340.528ZM306.217 333.113L305.127 335.001C305.962 337.472 309.266 336.092 310.396 334.13L312.211 331.006C313.556 328.716 310.577 327.045 306.217 333.113ZM330.219 337.981C330.001 337.401 329.347 336.818 328.802 336.674L328.547 336.966C327.218 338.526 325.691 339.905 324.005 341.07C324.475 339.659 324.722 337.951 324.988 336.105C325.4 333.246 325.86 330.056 327.273 327.12L324.438 325.593C324.16 325.975 323.822 326.446 323.437 326.985L323.436 326.986L323.436 326.986C321.659 329.469 318.852 333.39 316.046 336.674C316.052 336.684 316.062 336.692 316.067 336.699C316.061 336.696 316.054 336.692 316.047 336.688C316.039 336.682 316.03 336.677 316.022 336.674L315.769 336.966C313.042 340.126 310.392 342.632 308.719 342.632C307.885 342.632 307.085 341.796 307.085 340.089V338.527C309.737 338.854 312.535 337.109 314.315 334.023L315.331 332.28C318.853 326.25 313.114 324.25 309.263 327.776L314.638 318.439H310.859L300.084 337.134C299.877 336.951 299.645 336.797 299.395 336.677L299.139 336.969C296.416 340.129 292.928 342.635 290.276 342.635C287.951 342.635 286.571 341.182 288.315 338.131L292.199 331.374C294.379 327.632 298.231 328.25 295.977 332.174L295.433 333.118H298.523L299.068 332.174C301.102 328.686 299.139 326.07 296.053 326.07C293.002 326.07 290.566 327.67 288.968 330.43L285.25 336.81C285.23 336.798 285.21 336.786 285.19 336.774C285.131 336.738 285.072 336.702 285.017 336.678L284.762 336.97C282.038 340.13 279.387 342.636 277.715 342.636C276.879 342.636 276.409 342.056 277.279 340.566L285.345 326.433H281.565L274.846 338.167C271.973 340.782 269.761 342.235 269.032 341.909C268.156 341.539 268.905 340.293 269.396 339.477C269.434 339.413 269.471 339.352 269.505 339.294L276.879 326.433H273.101L265.763 339.128C265.257 339.589 264.454 340.019 263.73 340.408C263.286 340.646 262.872 340.868 262.573 341.072C263.044 339.66 263.29 337.952 263.557 336.105V336.105L263.557 336.104C263.969 333.246 264.43 330.057 265.842 327.122L263.01 325.595C261.447 327.738 252.727 339.293 249.312 343.288C249.637 343.76 250.184 344.233 250.728 344.596C252.871 342.126 260.066 332.862 261.41 331.082C260.909 332.4 260.667 334.072 260.43 335.71C259.961 338.947 259.511 342.054 257.122 342.054C255.852 342.054 255.342 340.672 255.342 340.672L252.981 341.908C252.981 341.908 253.671 344.958 257.121 344.958C257.455 344.958 257.757 344.928 258.085 344.895L258.085 344.895L258.177 344.886C258.184 344.886 258.19 344.885 258.197 344.883C258.203 344.881 258.209 344.878 258.215 344.875C258.22 344.873 258.225 344.871 258.23 344.868L258.23 344.868C258.241 344.863 258.251 344.857 258.262 344.854L258.267 344.852L258.27 344.851C258.275 344.851 258.279 344.85 258.283 344.85C260.203 344.596 262.861 343.712 264.643 342.48C264.631 344.017 265.559 344.958 267.143 344.958C269.211 344.958 271.538 343.069 273.353 341.326C272.992 343.361 274.188 344.958 276.588 344.958C278.934 344.958 281.547 343.072 284.025 340.595C284.059 343.105 285.993 344.958 289.151 344.958C292.217 344.958 295.265 343.245 297.892 340.942L295.787 344.596H299.603L303.926 337.076V340.09C303.926 343.322 304.543 344.958 307.596 344.958C310.719 344.958 314.317 341.617 317.441 337.983C317.439 337.98 317.437 337.977 317.434 337.973C317.428 337.966 317.422 337.958 317.421 337.949C317.435 337.961 317.452 337.972 317.468 337.983C319.181 336.009 320.733 333.918 321.971 332.249C322.282 331.83 322.574 331.437 322.843 331.079C322.343 332.397 322.102 334.067 321.865 335.705C321.396 338.943 320.946 342.052 318.556 342.052C317.286 342.052 316.776 340.67 316.776 340.67L314.414 341.906C314.414 341.906 315.105 344.956 318.556 344.956C318.884 344.956 319.182 344.927 319.508 344.894L319.612 344.884C319.628 344.884 319.643 344.877 319.659 344.869C319.678 344.859 319.697 344.849 319.717 344.849C323.57 344.337 327.385 341.287 330.218 337.979L330.219 337.981ZM215.445 336.895H215.628L218.388 332.173C220.676 328.248 217.044 326.468 214.391 330.973L212.575 334.061L209.705 339.038C207.452 342.962 211.776 343.542 213.555 340.492L213.592 340.419C213.374 340.057 213.229 339.622 213.229 339.15C213.229 337.912 214.21 336.895 215.445 336.895ZM190.198 351.026C189.398 352.443 188.126 352.226 188.126 351.21C188.126 350.23 189.035 349.104 191.941 347.976L190.198 351.026ZM155.353 342.599C156.915 342.599 159.168 340.891 161.456 337.296L164.397 332.136C166.251 328.72 162.219 327.813 160.184 331.335L154.917 340.528C154.046 342.019 154.518 342.599 155.353 342.599ZM149.402 322.546C150.528 320.619 151.764 319.784 152.817 319.784C154.235 319.784 154.888 320.728 154.888 322.109C154.888 325.633 150.524 332.942 144.716 331.99H143.953L149.402 322.546ZM241.925 336.932L242.179 336.64L242.18 336.641C242.69 336.859 243.343 337.441 243.598 337.952C240.472 341.585 236.878 344.927 233.752 344.927C230.699 344.927 229.574 342.35 231.172 339.551L236.076 331.013C237.712 328.215 235.132 327.272 229.355 334.502L223.579 344.565H219.764L222.304 340.171C220.618 341.101 218.75 341.621 217.37 341.621H216.535C212.297 346.979 205.269 345.776 205.789 340.499C202.537 343.718 199.423 345.677 196.264 346.671L193.358 351.649C190.636 356.299 185.076 355.535 185.076 351.902C185.076 349.07 188.273 346.961 193.396 345.437L195.467 341.877C193.758 343.401 191.689 344.927 189.872 344.927C187.99 344.927 187.031 343.595 187.484 341.517C185.31 343.507 183.077 344.927 181.044 344.927C177.993 344.927 176.867 342.351 178.465 339.551L183.369 331.017C185.004 328.218 182.424 327.275 176.647 334.505L170.871 344.568H167.057L168.449 342.157C166.507 343.806 164.539 344.93 162.729 344.93C160.805 344.93 159.641 343.915 159.461 342.461C157.644 343.95 155.755 344.93 154.229 344.93C151.554 344.93 150.358 342.949 151.181 340.575L150.957 340.788L150.957 340.788C148.467 343.157 146.604 344.93 142.5 344.93C137.16 344.93 135.599 339.846 138.25 335.268L139.375 333.304C136.325 331.706 134.617 328.799 134.617 325.786C134.617 323.24 135.814 320.664 138.504 318.736L139.739 320.954C138.105 322.224 137.305 323.968 137.305 325.711C137.305 327.819 138.469 329.926 140.685 331.089L146.571 320.952C148.277 317.974 150.748 316.52 152.819 316.52C155.615 316.52 157.832 318.735 157.832 322.15C157.832 323.64 157.359 325.383 156.306 327.236C153.327 332.431 148.749 334.503 144.716 334.503C143.955 334.503 143.264 334.426 142.574 334.319L141.519 336.171C139.269 340.023 140.83 342.602 143.409 342.602C147.084 342.602 149.168 340.185 151.822 337.106L151.969 336.935L152.223 336.643C152.494 336.716 152.791 336.898 153.051 337.131L156.954 330.395C158.55 327.632 161.386 326.035 163.419 326.035C165.89 326.035 167.525 328.251 167.38 329.849H169.523L163.419 340.529C162.548 342.021 163.02 342.601 163.855 342.601C165.528 342.601 168.18 340.094 170.903 336.934L171.157 336.642C171.282 336.7 171.402 336.767 171.516 336.844L177.554 326.399H181.334L179.917 328.868C181.805 326.906 183.513 326.034 185.148 326.034C187.255 326.034 188.817 328.106 187.182 330.976L181.733 340.529C180.862 342.021 181.334 342.601 182.169 342.601C183.841 342.601 186.492 340.094 189.217 336.934L189.471 336.642C189.586 336.696 189.697 336.758 189.802 336.829L195.83 326.399H199.608L192.233 339.259L192.186 339.339L192.122 339.445C191.632 340.263 190.887 341.506 191.761 341.875C192.487 342.201 194.74 340.712 197.647 338.025L204.33 326.399H208.109L197.754 344.129C200.732 342.854 203.384 340.529 206.509 336.934L206.763 336.643C206.882 336.697 206.996 336.761 207.105 336.833L208.725 334.063L210.577 330.83C212.758 327.052 215.009 325.89 217.916 325.89C221.478 325.89 223.584 329.629 221.296 333.591L217.736 339.731C219.625 339.694 221.733 338.784 223.439 336.932L223.694 336.64C223.864 336.72 224.026 336.817 224.176 336.93L230.264 326.397H234.043L232.626 328.866C234.516 326.904 236.221 326.033 237.857 326.033C239.962 326.033 241.528 328.104 239.892 330.974L234.442 340.527C233.571 342.019 234.042 342.599 234.878 342.599C236.55 342.599 239.203 340.092 241.925 336.932ZM360.81 301.068C358.52 304.809 356.195 306.589 354.598 306.589C353.763 306.589 353.291 306.009 354.161 304.519L359.428 295.326C361.463 291.802 365.495 292.711 363.642 296.126H363.677L360.81 301.068ZM318.519 306.589C320.08 306.589 322.333 304.881 324.623 301.287L327.564 296.126C329.416 292.711 325.384 291.802 323.35 295.326L318.082 304.519C317.212 306.009 317.683 306.589 318.519 306.589ZM284.706 315.017C283.909 316.434 282.636 316.217 282.636 315.201C282.636 314.22 283.508 313.094 286.415 311.967L284.706 315.017ZM296.151 283.776C295.096 283.776 293.861 284.61 292.734 286.536L287.286 295.981H288.049C297.676 298.211 302.145 283.776 296.151 283.776ZM370.398 300.633L370.143 300.923C367.423 304.083 364.769 306.59 363.096 306.59C362.261 306.59 361.789 306.01 362.659 304.519L375.448 282.395H371.669L366.112 291.986C365.458 290.932 364.222 290.024 362.659 290.024C360.624 290.024 357.792 291.623 356.193 294.383L352.495 300.763C352.482 300.756 352.469 300.748 352.456 300.74L352.431 300.725C352.373 300.69 352.315 300.655 352.261 300.631L352.006 300.923C349.283 304.083 347.006 306.589 345.334 306.589C344.497 306.589 344.027 306.009 344.896 304.519L350.346 294.964C351.983 292.094 350.418 290.022 348.312 290.022C346.676 290.022 344.972 290.893 343.08 292.857L344.497 290.387H340.718L334.681 300.834C334.566 300.757 334.446 300.689 334.321 300.631L334.065 300.923C331.342 304.083 328.691 306.589 327.019 306.589C326.184 306.589 325.713 306.009 326.583 304.519L332.686 293.837H330.542C330.688 292.239 329.054 290.022 326.582 290.022C324.547 290.022 321.712 291.621 320.114 294.38L316.462 300.686L316.256 300.92C313.534 304.079 310.506 306.585 308.836 306.585C307.999 306.585 307.529 306.005 308.399 304.515L312.177 297.904C313.484 295.614 312.866 294.271 311.632 292.781L309.526 290.237C308.981 289.547 308.981 288.784 309.744 288.057L307.782 285.914C305.638 287.841 305.457 289.983 306.8 291.727L307.129 292.163L306.995 292.352L306.995 292.353C305.337 294.695 303.139 297.8 300.732 300.628C300.773 300.687 300.818 300.745 300.866 300.803C300.906 300.851 300.947 300.9 300.99 300.948C297.877 304.528 295.231 306.843 292.26 308.11L297.055 299.9H293.277L292.878 300.555C290.88 304.079 288.59 306.586 285.648 306.586C283.068 306.586 282.598 304.007 284.848 300.156L285.903 298.304C286.611 298.421 287.327 298.481 288.045 298.485C301.488 298.485 307.991 280.503 296.149 280.503C294.077 280.503 291.605 281.957 289.899 284.935L284.014 295.07C281.798 293.909 280.636 291.802 280.636 289.695C280.636 287.952 281.436 286.207 283.068 284.937L281.835 282.72C279.145 284.646 277.947 287.224 277.947 289.767C277.947 292.783 279.656 295.689 282.707 297.287L281.58 299.25C278.928 303.828 279.4 308.913 284.742 308.913C286.34 308.913 287.683 308.441 288.847 307.713L287.864 309.423C282.744 310.983 279.582 313.054 279.582 315.888C279.582 319.52 285.142 320.284 287.864 315.634L290.771 310.657C294.696 309.422 298.547 306.734 302.689 301.938C302.622 301.812 302.543 301.693 302.453 301.583C304.131 299.612 305.555 297.709 308.403 293.837L308.91 294.456C309.383 295.072 309.564 295.836 309.128 296.6L305.131 303.537C303.532 306.332 304.659 308.911 307.711 308.911C309.61 308.911 312.059 307.672 314.096 305.887C314.052 307.625 315.24 308.911 317.395 308.911C318.92 308.911 320.81 307.931 322.625 306.441C322.808 307.895 323.972 308.911 325.895 308.911C327.705 308.911 329.672 307.786 331.615 306.137L330.223 308.549H334.036L339.813 298.484C345.59 291.255 348.17 292.2 346.533 294.997L341.63 303.535C340.033 306.333 341.157 308.911 344.208 308.911C346.218 308.911 348.044 307.527 350.19 305.578C349.99 307.471 351.194 308.911 353.472 308.911C354.997 308.911 356.886 307.931 358.704 306.441C358.886 307.896 360.049 308.911 361.973 308.911C365.098 308.911 368.693 305.57 371.818 301.935C371.562 301.431 370.909 300.85 370.398 300.633ZM261.897 296.127C264.151 292.203 260.298 291.586 258.118 295.328L255.684 299.578C257.1 300.086 259.535 300.16 261.352 297.071L261.897 296.127ZM255.067 308.915C259.354 308.915 263.607 305.574 266.729 301.94C266.476 301.43 265.821 300.85 265.312 300.632L265.059 300.924C262.333 304.084 258.846 306.59 256.192 306.59C253.867 306.59 252.487 305.137 254.23 302.085L254.593 301.432C257.028 302.448 261.605 301.977 264.439 297.072L264.984 296.128C267.019 292.639 265.057 290.024 261.968 290.024C258.918 290.024 256.484 291.622 254.885 294.383L251.206 300.696C251.168 300.676 251.13 300.648 251.094 300.632L250.839 300.924C248.115 304.084 245.464 306.59 243.792 306.59C242.956 306.59 242.486 306.01 243.355 304.519L248.805 294.964C250.44 292.094 248.877 290.022 246.769 290.022C245.134 290.022 243.39 290.931 241.503 292.893L247.533 282.393H243.755L233.099 300.883C232.964 300.785 232.819 300.7 232.667 300.631L232.412 300.922C229.687 304.083 227.036 306.589 225.364 306.589C224.529 306.589 224.057 306.009 224.927 304.519L233.029 290.385H236.119L237.209 288.568H234.084L237.644 282.393H233.866L230.306 288.568H226.891L225.801 290.385H229.251L221.658 303.538C220.06 306.337 221.186 308.915 224.237 308.915C226.115 308.915 228.163 307.702 230.177 305.951L228.678 308.551H232.493L238.233 298.559C244.046 291.257 246.626 292.202 244.991 294.999L240.086 303.537C238.488 306.335 239.614 308.913 242.666 308.913C244.962 308.913 247.512 307.108 249.942 304.708C250.052 307.139 251.975 308.915 255.067 308.915ZM131.372 296.126C133.626 292.202 129.776 291.585 127.596 295.327L125.161 299.576C126.577 300.085 129.013 300.158 130.828 297.07L131.372 296.126ZM150.715 304.518L155.983 295.327C158.017 291.801 162.05 292.71 160.196 296.126L157.254 301.285C154.966 304.88 152.711 306.589 151.15 306.589C150.316 306.589 149.843 306.008 150.715 304.519V304.518ZM208.475 296.126C210.729 292.202 206.879 291.585 204.699 295.327L202.264 299.576C203.68 300.084 206.115 300.158 207.93 297.07L208.475 296.126ZM146.891 304.853C146.264 307.093 147.461 308.913 150.025 308.913C151.55 308.913 153.44 307.933 155.255 306.444C155.438 307.897 156.601 308.914 158.525 308.914C160.538 308.914 162.743 307.524 164.894 305.568C164.476 307.61 165.433 308.914 167.294 308.914C169.367 308.914 171.692 307.024 173.507 305.28C173.143 307.316 174.344 308.914 176.741 308.914C179.866 308.914 183.461 305.572 186.586 301.938C186.571 301.909 186.551 301.879 186.53 301.85C186.515 301.829 186.499 301.808 186.486 301.787C188.126 299.879 189.614 297.88 190.816 296.265L190.816 296.265L190.816 296.264L190.817 296.264L190.817 296.263C191.145 295.822 191.452 295.411 191.734 295.037C191.233 296.355 190.991 298.026 190.754 299.665V299.665C190.285 302.901 189.835 306.009 187.446 306.009C186.176 306.009 185.666 304.627 185.666 304.627L183.303 305.862C183.303 305.862 183.993 308.914 187.445 308.914C187.769 308.914 188.063 308.885 188.382 308.853L188.499 308.841C188.518 308.841 188.536 308.832 188.554 308.823C188.572 308.815 188.589 308.806 188.607 308.806C191.383 308.439 194.136 306.75 196.52 304.597C196.578 307.083 198.506 308.914 201.645 308.914C205.932 308.914 210.183 305.573 213.307 301.938C213.053 301.428 212.399 300.848 211.891 300.63L211.637 300.922C208.912 304.082 205.424 306.589 202.774 306.589C200.448 306.589 199.067 305.135 200.811 302.084L201.175 301.43C203.607 302.446 208.185 301.975 211.02 297.07L211.565 296.127C213.599 292.638 211.637 290.023 208.55 290.023C205.5 290.023 203.063 291.621 201.467 294.381L197.797 300.675C197.781 300.67 197.765 300.661 197.749 300.653C197.73 300.644 197.712 300.634 197.693 300.629L197.439 300.92C196.11 302.48 194.583 303.86 192.897 305.026C193.368 303.614 193.614 301.906 193.881 300.059V300.059L193.881 300.059C194.294 297.201 194.755 294.011 196.167 291.075L193.334 289.549C193.05 289.939 192.705 290.421 192.309 290.973L192.309 290.973C190.53 293.458 187.736 297.36 184.941 300.629C184.952 300.644 184.964 300.659 184.976 300.675C184.984 300.684 184.992 300.694 185 300.703L185.002 300.706L185.003 300.707C185.019 300.727 185.036 300.747 185.051 300.767L184.916 300.92C182.192 304.08 179.54 306.587 177.868 306.587C177.033 306.587 176.561 306.007 177.432 304.517L185.497 290.382H181.718L174.998 302.116C172.128 304.732 169.913 306.185 169.184 305.858C168.308 305.488 169.059 304.24 169.55 303.423L169.551 303.421L169.56 303.406C169.581 303.373 169.6 303.34 169.619 303.308C169.632 303.286 169.645 303.264 169.658 303.243L177.031 290.383H173.253L167.24 300.788L167.206 300.767C167.12 300.714 167.034 300.661 166.953 300.627L166.699 300.917C163.974 304.077 161.323 306.584 159.651 306.584C158.816 306.584 158.344 306.004 159.215 304.514L165.318 293.832H163.174C163.32 292.234 161.686 290.016 159.214 290.016C157.18 290.016 154.346 291.616 152.748 294.376L148.918 300.988C148.741 300.844 148.548 300.722 148.342 300.625L148.088 300.915C145.364 304.075 142.23 306.582 139.578 306.582C137.254 306.582 135.872 305.129 137.615 302.078L141.502 295.322C143.682 291.58 147.533 292.197 145.279 296.12L144.734 297.065H147.824L148.368 296.12C150.402 292.633 148.441 290.016 145.354 290.016C142.302 290.016 140.22 291.616 138.624 294.376L134.868 300.819C134.758 300.745 134.642 300.68 134.521 300.625L134.267 300.915C131.543 304.075 128.32 306.582 125.669 306.582C123.343 306.582 121.962 305.129 123.706 302.078L124.069 301.424C126.503 302.442 131.081 301.969 133.915 297.066L134.46 296.12C136.494 292.634 134.532 290.017 131.444 290.017C128.394 290.017 125.958 291.615 124.361 294.377L120.401 301.169C118.038 305.202 120.074 308.907 124.541 308.907C127.87 308.907 130.554 306.892 133.329 304.29C133.231 306.927 135.187 308.907 138.45 308.907C141.538 308.913 144.25 307.179 146.891 304.853ZM113.07 285.662L110.019 290.893V290.894C113.87 290.821 116.015 289.985 117.465 287.261C119.355 283.7 115.83 280.905 113.07 285.662ZM105.951 308.113C103.698 308.113 101.918 307.605 100.501 306.807C101.155 306.043 101.808 305.098 102.391 304.118L108.747 293.11L109.764 293.218C118.63 295.073 115.105 308.113 105.951 308.113ZM115.288 292.638C122.916 290.057 123.497 280.503 115.977 280.503C113.906 280.503 111.436 281.956 109.729 284.935L99.556 302.519C99.1362 303.274 98.6503 303.991 98.104 304.66C95.488 301.065 96.251 295.689 99.92 293.326L98.393 291.4C90.473 296.45 92.799 311.017 106.023 311.017C117.322 311.019 122.553 297.471 115.288 292.638Z" fill="white"/>
</svg>
